{"asset":{"generator":"Khronos glTF Spline I/O v0.0.1","version":"2.0"},"scenes":[{"nodes":[0]}],"nodes":[{"name":"","children":[1,2,3,4,5,6,7,8,9,10,11,12,13]},{"name":"Cube 5","matrix":[1.3698628062792428,0,0,0,0,-0.21283620323243158,-0.5520294301592236,0,0,1.5200892343180705,-0.5860738640572757,0,0.34231412120743654,8.29797560374982,-0.4932803557359582,1],"mesh":0},{"name":"Cube 4","matrix":[1.3698628062792428,0,0,0,0,-0.21283620323243158,-0.5520294301592236,0,0,1.5200892343180705,-0.5860738640572757,0,1.9342104958456385,8.29797560374982,-0.4932803557359582,1],"mesh":1},{"name":"Shape 2","matrix":[0.7383020616568686,1.9428902930940236e-15,0.6744702111681561,0,0.6744702111682038,-8.88178419700188e-16,-0.7383020616569208,0,-2.8595993509679075e-16,0.3434264152386127,-6.863038442322978e-16,0,-0.11495239068058094,7.598501624255729,-5.370219051067826,1],"mesh":2,"children":[14]},{"name":"Shape","matrix":[0.6849929723377071,3.885780586188047e-16,-0.7285496742487453,0,-0.728549674248795,3.3306690738756964e-16,-0.684992972337754,0,-1.9063995673119542e-17,0.34342641523861567,1.5251196538495634e-16,0,0.737862601590169,7.598501624255729,-3.7175940114570203,1],"mesh":3,"children":[15]},{"name":"Sphere 3","matrix":[2.220446049250313e-16,0,-1,0,0,1,0,0,1,0,2.220446049250313e-16,0,1.1705222394701558,9.746224318183522,-2.2230309768856396,1],"mesh":4},{"name":"Cube 3","matrix":[1,0,0,0,0,2.2204460492504684e-16,-1.0000000000000702,0,0,1.0000000000000702,2.2204460492504684e-16,0,0.06417555587813384,12.988069788359098,-0.321816322895769,1],"mesh":5},{"name":"Cube 2","matrix":[1,0,0,0,0,2.2204460492504344e-16,-1.0000000000000548,0,0,1.0000000000000548,2.2204460492504344e-16,0,2.592267595898192,12.988069788359098,-0.30444058187278034,1],"mesh":6},{"name":"Sphere 2","matrix":[1,0,0,0,0,1,0,0,0,0,1,0,2.483550617786676,12.98371652302753,0.19440076596817768,1],"mesh":7,"children":[16]},{"name":"Sphere","matrix":[1,0,0,0,0,1,0,0,0,0,1,0,0.1541818753118771,12.98371652302753,0.0925415411534889,1],"mesh":8,"children":[17]},{"name":"Cube","matrix":[1.4552720304592572e-16,0,0.6553962574099016,0,0,0.5049073338117589,0,0,-0.7493780484576168,0,1.663953527092625e-16,0,1.1201574241017622,11.727524852578465,0.23547114085057252,1],"mesh":9},{"name":"Directional Light","translation":[26.768670440046787,48.158511226120936,0],"rotation":[-0.6844796988365985,0.1774472932466408,-0.17744729324664082,0.6844796988365985],"extensions":{"KHR_lights_punctual":{"light":0}}},{"name":"Cylinder","matrix":[1.0000000000000004,0,0,0,0,0.01570004982663688,0,0,0,0,1,0,0.5847623833827331,6.754560964248444,6.98923352283758,1],"mesh":10},{"name":"Personal Camera","camera":0,"translation":[12.947868041295113,13.072774978045313,83.33634215196152],"rotation":[-0.022274034721948947,0.07230466284130142,0.0016151479492397876,0.9971325360280414]},{"name":"Cone 2","matrix":[1.1102230246251564e-16,-0.9065877613797438,-1.2288435487983973,0,-6.162975822039155e-33,0.4220173348529059,-2.6398311869804867,0,1.0000000000000016,2.2204460492501864e-16,1.6163914238422431e-16,0,1.1394380733833323,-1.383226567425376,5.443978932702747,0.9999999999999998],"mesh":11},{"name":"Cone 2","matrix":[1.1102230246251564e-16,-0.9065877613797438,-1.2288435487983973,0,-6.162975822039155e-33,0.4220173348529059,-2.6398311869804867,0,1.0000000000000016,2.2204460492501864e-16,1.6163914238422431e-16,0,1.1394380733833323,-1.383226567425376,5.443978932702747,0.9999999999999998],"mesh":12},{"name":"Sphere 3","matrix":[0.69752602586459,0,0,0,0,0.69752602586459,0,0,0,0,0.69752602586459,0,0.018058689722378226,-3.552713678800501e-15,0.36214766469265636,0.9999999999999999],"mesh":13},{"name":"Sphere 3","matrix":[0.69752602586459,0,0,0,0,0.69752602586459,0,0,0,0,0.69752602586459,0,-0.029191428299015533,-3.552713678800501e-15,0.46400688950734503,0.9999999999999999],"mesh":14}],"cameras":[{"type":"perspective","perspective":{"aspectRatio":1.9338842975206612,"yfov":0.7853981633974483,"znear":5,"zfar":100000}}],"meshes":[{"primitives":[{"attributes":{"POSITION":1,"NORMAL":2,"TEXCOORD_0":3},"indices":0}]},{"primitives":[{"attributes":{"POSITION":5,"NORMAL":6,"TEXCOORD_0":7},"indices":4}]},{"primitives":[{"attributes":{"POSITION":9,"NORMAL":10,"TEXCOORD_0":11},"indices":8}]},{"primitives":[{"attributes":{"POSITION":13,"NORMAL":14,"TEXCOORD_0":15},"indices":12}]},{"primitives":[{"attributes":{"POSITION":17,"NORMAL":18,"TEXCOORD_0":19},"indices":16}]},{"primitives":[{"attributes":{"POSITION":21,"NORMAL":22},"indices":20}]},{"primitives":[{"attributes":{"POSITION":24,"NORMAL":25,"RANDOMCOLOR":26},"indices":23}]},{"primitives":[{"attributes":{"POSITION":28,"NORMAL":29,"TEXCOORD_0":30},"indices":27}]},{"primitives":[{"attributes":{"POSITION":32,"NORMAL":33,"TEXCOORD_0":34},"indices":31}]},{"primitives":[{"attributes":{"POSITION":36,"NORMAL":37,"RANDOMCOLOR":38},"indices":35}]},{"primitives":[{"attributes":{"POSITION":40,"NORMAL":41,"RANDOMCOLOR":42},"indices":39}]},{"primitives":[{"attributes":{"POSITION":44,"NORMAL":45,"TEXCOORD_0":46},"indices":43}]},{"primitives":[{"attributes":{"POSITION":48,"NORMAL":49,"TEXCOORD_0":50},"indices":47}]},{"primitives":[{"attributes":{"POSITION":52,"NORMAL":53,"TEXCOORD_0":54},"indices":51}]},{"primitives":[{"attributes":{"POSITION":56,"NORMAL":57,"TEXCOORD_0":58},"indices":55}]}],"buffers":[{"uri":"data:application/octet-stream;base64,","byteLength":23496},{"uri":"data:application/octet-stream;base64,","byteLength":23496},{"uri":"data:application/octet-stream;base64,","byteLength":73008},{"uri":"data:application/octet-stream;base64,","byteLength":73008},{"uri":"data:application/octet-stream;base64,","byteLength":183584},{"uri":"data:application/octet-stream;base64,","byteLength":19200},{"uri":"data:application/octet-stream;base64,","byteLength":26880},{"uri":"data:application/octet-stream;base64,","byteLength":183584},{"uri":"data:application/octet-stream;base64,","byteLength":183584},{"uri":"data:application/octet-stream;base64,","byteLength":26880},{"uri":"data:application/octet-stream;base64,","byteLength":306432},{"uri":"data:application/octet-stream;base64,","byteLength":30720},{"uri":"data:application/octet-stream;base64,","byteLength":30720},{"uri":"data:application/octet-stream;base64,","byteLength":183584},{"uri":"data:application/octet-stream;base64,","byteLength":183584}],"bufferViews":[{"buffer":0,"byteOffset":0,"byteLength":4296,"target":34963},{"buffer":0,"byteOffset":4296,"byteLength":7200,"target":34962},{"buffer":0,"byteOffset":11496,"byteLength":7200,"target":34962},{"buffer":0,"byteOffset":18696,"byteLength":4800,"target":34962},{"buffer":1,"byteOffset":0,"byteLength":4296,"target":34963},{"buffer":1,"byteOffset":4296,"byteLength":7200,"target":34962},{"buffer":1,"byteOffset":11496,"byteLength":7200,"target":34962},{"buffer":1,"byteOffset":18696,"byteLength":4800,"target":34962},{"buffer":2,"byteOffset":0,"byteLength":12528,"target":34963},{"buffer":2,"byteOffset":12528,"byteLength":20160,"target":34962},{"buffer":2,"byteOffset":32688,"byteLength":20160,"target":34962},{"buffer":2,"byteOffset":52848,"byteLength":20160,"target":34962},{"buffer":3,"byteOffset":0,"byteLength":12528,"target":34963},{"buffer":3,"byteOffset":12528,"byteLength":20160,"target":34962},{"buffer":3,"byteOffset":32688,"byteLength":20160,"target":34962},{"buffer":3,"byteOffset":52848,"byteLength":20160,"target":34962},{"buffer":4,"byteOffset":0,"byteLength":48384,"target":34963},{"buffer":4,"byteOffset":48384,"byteLength":50700,"target":34962},{"buffer":4,"byteOffset":99084,"byteLength":50700,"target":34962},{"buffer":4,"byteOffset":149784,"byteLength":33800,"target":34962},{"buffer":5,"byteOffset":0,"byteLength":3840,"target":34963},{"buffer":5,"byteOffset":3840,"byteLength":7680,"target":34962},{"buffer":5,"byteOffset":11520,"byteLength":7680,"target":34962},{"buffer":6,"byteOffset":0,"byteLength":3840,"target":34963},{"buffer":6,"byteOffset":3840,"byteLength":7680,"target":34962},{"buffer":6,"byteOffset":11520,"byteLength":7680,"target":34962},{"buffer":6,"byteOffset":19200,"byteLength":7680,"target":34962},{"buffer":7,"byteOffset":0,"byteLength":48384,"target":34963},{"buffer":7,"byteOffset":48384,"byteLength":50700,"target":34962},{"buffer":7,"byteOffset":99084,"byteLength":50700,"target":34962},{"buffer":7,"byteOffset":149784,"byteLength":33800,"target":34962},{"buffer":8,"byteOffset":0,"byteLength":48384,"target":34963},{"buffer":8,"byteOffset":48384,"byteLength":50700,"target":34962},{"buffer":8,"byteOffset":99084,"byteLength":50700,"target":34962},{"buffer":8,"byteOffset":149784,"byteLength":33800,"target":34962},{"buffer":9,"byteOffset":0,"byteLength":3840,"target":34963},{"buffer":9,"byteOffset":3840,"byteLength":7680,"target":34962},{"buffer":9,"byteOffset":11520,"byteLength":7680,"target":34962},{"buffer":9,"byteOffset":19200,"byteLength":7680,"target":34962},{"buffer":10,"byteOffset":0,"byteLength":43776,"target":34963},{"buffer":10,"byteOffset":43776,"byteLength":87552,"target":34962},{"buffer":10,"byteOffset":131328,"byteLength":87552,"target":34962},{"buffer":10,"byteOffset":218880,"byteLength":87552,"target":34962},{"buffer":11,"byteOffset":0,"byteLength":7488,"target":34963},{"buffer":11,"byteOffset":7488,"byteLength":8712,"target":34962},{"buffer":11,"byteOffset":16200,"byteLength":8712,"target":34962},{"buffer":11,"byteOffset":24912,"byteLength":5808,"target":34962},{"buffer":12,"byteOffset":0,"byteLength":7488,"target":34963},{"buffer":12,"byteOffset":7488,"byteLength":8712,"target":34962},{"buffer":12,"byteOffset":16200,"byteLength":8712,"target":34962},{"buffer":12,"byteOffset":24912,"byteLength":5808,"target":34962},{"buffer":13,"byteOffset":0,"byteLength":48384,"target":34963},{"buffer":13,"byteOffset":48384,"byteLength":50700,"target":34962},{"buffer":13,"byteOffset":99084,"byteLength":50700,"target":34962},{"buffer":13,"byteOffset":149784,"byteLength":33800,"target":34962},{"buffer":14,"byteOffset":0,"byteLength":48384,"target":34963},{"buffer":14,"byteOffset":48384,"byteLength":50700,"target":34962},{"buffer":14,"byteOffset":99084,"byteLength":50700,"target":34962},{"buffer":14,"byteOffset":149784,"byteLength":33800,"target":34962}],"accessors":[{"bufferView":0,"byteOffset":0,"componentType":5123,"count":2148,"type":"SCALAR","min":[0],"max":[599]},{"bufferView":1,"byteOffset":0,"componentType":5126,"count":600,"type":"VEC3","min":[-0.25,-0.5,-0.5],"max":[0.25,0.5,0.5]},{"bufferView":2,"byteOffset":0,"componentType":5126,"count":600,"type":"VEC3","min":[-1,-1,-1],"max":[1,1,1]},{"bufferView":3,"byteOffset":0,"componentType":5126,"count":600,"type":"VEC2","min":[0,0],"max":[1,1]},{"bufferView":4,"byteOffset":0,"componentType":5123,"count":2148,"type":"SCALAR","min":[0],"max":[599]},{"bufferView":5,"byteOffset":0,"componentType":5126,"count":600,"type":"VEC3","min":[-0.25,-0.5,-0.5],"max":[0.25,0.5,0.5]},{"bufferView":6,"byteOffset":0,"componentType":5126,"count":600,"type":"VEC3","min":[-1,-1,-1],"max":[1,1,1]},{"bufferView":7,"byteOffset":0,"componentType":5126,"count":600,"type":"VEC2","min":[0,0],"max":[1,1]},{"bufferView":8,"byteOffset":0,"componentType":5125,"count":3132,"type":"SCALAR","min":[0],"max":[629]},{"bufferView":9,"byteOffset":0,"componentType":5126,"count":630,"type":"VEC3","min":[-1.1224230527877808,-6.122124195098877,0],"max":[3.1478054523468018,0.10436571389436722,1]},{"bufferView":10,"byteOffset":0,"componentType":5126,"count":630,"type":"VEC3","min":[-0.9908619523048401,-0.9994909763336182,-1],"max":[0.9964739680290222,0.9994259476661682,1]},{"bufferView":11,"byteOffset":0,"componentType":5126,"count":630,"type":"VEC2","min":[0,0],"max":[1,1]},{"bufferView":12,"byteOffset":0,"componentType":5125,"count":3132,"type":"SCALAR","min":[0],"max":[629]},{"bufferView":13,"byteOffset":0,"componentType":5126,"count":630,"type":"VEC3","min":[-1.1224230527877808,-6.122124195098877,0],"max":[3.1478054523468018,0.10436571389436722,1]},{"bufferView":14,"byteOffset":0,"componentType":5126,"count":630,"type":"VEC3","min":[-0.9908619523048401,-0.9994909763336182,-1],"max":[0.9964739680290222,0.9994259476661682,1]},{"bufferView":15,"byteOffset":0,"componentType":5126,"count":630,"type":"VEC2","min":[0,0],"max":[1,1]},{"bufferView":16,"byteOffset":0,"componentType":5123,"count":24192,"type":"SCALAR","min":[0],"max":[4224]},{"bufferView":17,"byteOffset":0,"componentType":5126,"count":4225,"type":"VEC3","min":[-2,-2,-2],"max":[2,2,2]},{"bufferView":18,"byteOffset":0,"componentType":5126,"count":4225,"type":"VEC3","min":[-1,-1,-1],"max":[1,1,1]},{"bufferView":19,"byteOffset":0,"componentType":5126,"count":4225,"type":"VEC2","min":[-0.0078125,0],"max":[1.0078125,1]},{"bufferView":20,"byteOffset":0,"componentType":5125,"count":960,"type":"SCALAR","min":[0],"max":[639]},{"bufferView":21,"byteOffset":0,"componentType":5126,"count":640,"type":"VEC3","min":[-1.355713129043579,-0.6870163679122925,-1.2528659105300903],"max":[1.355713129043579,0.6149305701255798,1.2528659105300903]},{"bufferView":22,"byteOffset":0,"componentType":5126,"count":640,"type":"VEC3","min":[-0.9988325834274292,-1,-0.9990026354789734],"max":[0.9988325834274292,1,0.9990026354789734]},{"bufferView":23,"byteOffset":0,"componentType":5125,"count":960,"type":"SCALAR","min":[0],"max":[639]},{"bufferView":24,"byteOffset":0,"componentType":5126,"count":640,"type":"VEC3","min":[-1.3526461124420166,-0.6870163679122925,-1.253176212310791],"max":[1.3526461124420166,0.6149305701255798,1.253176212310791]},{"bufferView":25,"byteOffset":0,"componentType":5126,"count":640,"type":"VEC3","min":[-1.001097321510315,-1,-0.9987552762031555],"max":[1.001097321510315,1,0.9987552762031555]},{"bufferView":26,"byteOffset":0,"componentType":5126,"count":640,"type":"VEC3","min":[0.9343371391296387,0.9343371391296387,0.9343371391296387],"max":[0.9343371391296387,0.9343371391296387,0.9343371391296387]},{"bufferView":27,"byteOffset":0,"componentType":5123,"count":24192,"type":"SCALAR","min":[0],"max":[4224]},{"bufferView":28,"byteOffset":0,"componentType":5126,"count":4225,"type":"VEC3","min":[-1,-1,-1],"max":[1,1,1]},{"bufferView":29,"byteOffset":0,"componentType":5126,"count":4225,"type":"VEC3","min":[-1,-1,-1],"max":[1,1,1]},{"bufferView":30,"byteOffset":0,"componentType":5126,"count":4225,"type":"VEC2","min":[-0.0078125,0],"max":[1.0078125,1]},{"bufferView":31,"byteOffset":0,"componentType":5123,"count":24192,"type":"SCALAR","min":[0],"max":[4224]},{"bufferView":32,"byteOffset":0,"componentType":5126,"count":4225,"type":"VEC3","min":[-1,-1,-1],"max":[1,1,1]},{"bufferView":33,"byteOffset":0,"componentType":5126,"count":4225,"type":"VEC3","min":[-1,-1,-1],"max":[1,1,1]},{"bufferView":34,"byteOffset":0,"componentType":5126,"count":4225,"type":"VEC2","min":[-0.0078125,0],"max":[1.0078125,1]},{"bufferView":35,"byteOffset":0,"componentType":5125,"count":960,"type":"SCALAR","min":[0],"max":[639]},{"bufferView":36,"byteOffset":0,"componentType":5126,"count":640,"type":"VEC3","min":[-4.321713924407959,-5.22141695022583,-4.1126933097839355],"max":[4.321713924407959,2.440739631652832,4.1126933097839355]},{"bufferView":37,"byteOffset":0,"componentType":5126,"count":640,"type":"VEC3","min":[-0.999885082244873,-1,-0.9977837204933167],"max":[0.999885082244873,1,0.9977837204933167]},{"bufferView":38,"byteOffset":0,"componentType":5126,"count":640,"type":"VEC3","min":[0.20077550411224365,0.42310187220573425,0.503678560256958],"max":[0.20077550411224365,0.42310187220573425,0.503678560256958]},{"bufferView":39,"byteOffset":0,"componentType":5125,"count":10944,"type":"SCALAR","min":[0],"max":[7295]},{"bufferView":40,"byteOffset":0,"componentType":5126,"count":7296,"type":"VEC3","min":[-18.233856201171875,-55.12171173095703,-18.2401065826416],"max":[18.22667694091797,55.1263427734375,17.96289825439453]},{"bufferView":41,"byteOffset":0,"componentType":5126,"count":7296,"type":"VEC3","min":[-1,-0.9999879002571106,-0.9999364614486694],"max":[0.9992290139198303,0.9999995827674866,0.9982450008392334]},{"bufferView":42,"byteOffset":0,"componentType":5126,"count":7296,"type":"VEC3","min":[0.7289534211158752,0.37996235489845276,0.6468747854232788],"max":[0.7289534211158752,0.37996235489845276,0.6468747854232788]},{"bufferView":43,"byteOffset":0,"componentType":5123,"count":3744,"type":"SCALAR","min":[0],"max":[724]},{"bufferView":44,"byteOffset":0,"componentType":5126,"count":726,"type":"VEC3","min":[-1.027188777923584,-1.973813533782959,-0.34239625930786133],"max":[1.027188777923584,1.973813533782959,0.34239625930786133]},{"bufferView":45,"byteOffset":0,"componentType":5126,"count":726,"type":"VEC3","min":[-0.9927660822868347,-1,-0.9991884231567383],"max":[0.9927660822868347,1,0.9991884231567383]},{"bufferView":46,"byteOffset":0,"componentType":5126,"count":726,"type":"VEC2","min":[0,0],"max":[1,1]},{"bufferView":47,"byteOffset":0,"componentType":5123,"count":3744,"type":"SCALAR","min":[0],"max":[724]},{"bufferView":48,"byteOffset":0,"componentType":5126,"count":726,"type":"VEC3","min":[-1.027188777923584,-1.973813533782959,-0.34239625930786133],"max":[1.027188777923584,1.973813533782959,0.34239625930786133]},{"bufferView":49,"byteOffset":0,"componentType":5126,"count":726,"type":"VEC3","min":[-0.9927660822868347,-1,-0.9991884231567383],"max":[0.9927660822868347,1,0.9991884231567383]},{"bufferView":50,"byteOffset":0,"componentType":5126,"count":726,"type":"VEC2","min":[0,0],"max":[1,1]},{"bufferView":51,"byteOffset":0,"componentType":5123,"count":24192,"type":"SCALAR","min":[0],"max":[4224]},{"bufferView":52,"byteOffset":0,"componentType":5126,"count":4225,"type":"VEC3","min":[-1,-1,-1],"max":[1,1,1]},{"bufferView":53,"byteOffset":0,"componentType":5126,"count":4225,"type":"VEC3","min":[-1,-1,-1],"max":[1,1,1]},{"bufferView":54,"byteOffset":0,"componentType":5126,"count":4225,"type":"VEC2","min":[-0.0078125,0],"max":[1.0078125,1]},{"bufferView":55,"byteOffset":0,"componentType":5123,"count":24192,"type":"SCALAR","min":[0],"max":[4224]},{"bufferView":56,"byteOffset":0,"componentType":5126,"count":4225,"type":"VEC3","min":[-1,-1,-1],"max":[1,1,1]},{"bufferView":57,"byteOffset":0,"componentType":5126,"count":4225,"type":"VEC3","min":[-1,-1,-1],"max":[1,1,1]},{"bufferView":58,"byteOffset":0,"componentType":5126,"count":4225,"type":"VEC2","min":[-0.0078125,0],"max":[1.0078125,1]}],"extensions":{"KHR_lights_punctual":{"lights":[{"type":"directional","name":"Directional Light","color":[1,1,1],"intensity":1}]}},"extensionsUsed":["KHR_lights_punctual"]}